<svg viewBox="0 0 24 24" fill="none" xmlns="http://www.w3.org/2000/svg"><path d="M7 11.25C6.58579 11.25 6.25 11.5858 6.25 12C6.25 12.4142 6.58579 12.75 7 12.75V11.25ZM17 12L17.5303 12.5303C17.8232 12.2374 17.8232 11.7626 17.5303 11.4697L17 12ZM13.5303 7.46967C13.2374 7.17678 12.7626 7.17678 12.4697 7.46967C12.1768 7.76256 12.1768 8.23744 12.4697 8.53033L13.5303 7.46967ZM12.4697 15.4697C12.1768 15.7626 12.1768 16.2374 12.4697 16.5303C12.7626 16.8232 13.2374 16.8232 13.5303 16.5303L12.4697 15.4697ZM7 12.75H17V11.25H7V12.75ZM17.5303 11.4697L13.5303 7.46967L12.4697 8.53033L16.4697 12.5303L17.5303 11.4697ZM16.4697 11.4697L12.4697 15.4697L13.5303 16.5303L17.5303 12.5303L16.4697 11.4697Z" fill="#2563eb"></path></svg>